<svg width="348" height="74" viewBox="0 0 348 74" fill="none" xmlns="http://www.w3.org/2000/svg">
<rect width="348" height="74" rx="7" fill="#2E2E39"/>
<g clip-path="url(#clip0_155_532)">
<path d="M302.14 52.942H302.881V53.6108H302.899C303.09 53.3632 303.339 53.1645 303.624 53.0312C303.909 52.8978 304.222 52.8338 304.537 52.8444C304.829 52.8418 305.119 52.8963 305.391 53.0046C305.662 53.1129 305.909 53.273 306.117 53.4757C306.325 53.6784 306.491 53.9197 306.605 54.1858C306.719 54.4519 306.779 54.7375 306.781 55.0264C306.785 55.3239 306.729 55.6193 306.616 55.8953C306.504 56.1713 306.337 56.4224 306.125 56.6339C305.913 56.8454 305.661 57.0132 305.383 57.1273C305.104 57.2415 304.806 57.2998 304.505 57.2987C304.195 57.3135 303.887 57.2527 303.606 57.1215C303.326 56.9904 303.083 56.7931 302.899 56.547H302.881V58.9877H302.14V52.942ZM304.408 53.5302C304 53.5392 303.612 53.7061 303.326 53.995C303.041 54.2839 302.882 54.6718 302.884 55.0752C302.883 55.482 303.046 55.8724 303.336 56.1607C303.627 56.449 304.021 56.6116 304.433 56.6129C304.641 56.6133 304.847 56.5724 305.039 56.4927C305.23 56.4129 305.404 56.2959 305.549 56.1486C305.694 56.0012 305.807 55.8266 305.883 55.6351C305.958 55.4436 305.994 55.2391 305.987 55.0337C305.985 54.8322 305.942 54.633 305.861 54.4479C305.781 54.2629 305.663 54.0955 305.516 53.9556C305.369 53.8157 305.196 53.706 305.006 53.633C304.815 53.56 304.612 53.525 304.408 53.5302Z" fill="#C4A076"/>
<path d="M311.846 56.376C311.614 56.665 311.318 56.8982 310.981 57.058C310.644 57.2178 310.275 57.3001 309.901 57.2986C308.372 57.2986 307.551 56.2027 307.551 55.0678C307.541 54.7754 307.592 54.484 307.699 54.2114C307.807 53.9389 307.97 53.691 308.178 53.4828C308.387 53.2747 308.636 53.1107 308.91 53.0009C309.185 52.8911 309.479 52.8378 309.775 52.8443C311.107 52.8443 312.036 53.8474 312.036 55.3534H308.33C308.385 55.7152 308.574 56.0441 308.86 56.2766C309.146 56.5092 309.509 56.6289 309.879 56.6128C310.147 56.607 310.41 56.5421 310.649 56.423C310.888 56.304 311.097 56.1336 311.26 55.9245L311.846 56.376ZM311.194 54.7481C311.158 54.404 310.991 54.0862 310.727 53.8595C310.462 53.6328 310.12 53.5141 309.77 53.5277C309.42 53.5123 309.077 53.6302 308.811 53.8572C308.546 54.0843 308.379 54.4031 308.345 54.7481H311.194Z" fill="#C4A076"/>
<path d="M313.146 51.9121H313.887V52.9421H314.574V53.5865H313.887V56.2029C313.887 56.4324 313.961 56.5153 314.253 56.5153H314.591V57.1939C314.483 57.1939 314.31 57.1939 314.137 57.1939C313.376 57.1939 313.148 56.9327 313.148 56.2786V53.5865H312.553V52.9421H313.148L313.146 51.9121Z" fill="#C4A076"/>
<path d="M250.665 39.6717C250.618 37.9486 250.618 37.9462 252.347 37.8998L259.377 37.7167C259.556 33.3132 260.728 29.0047 262.807 25.1054C262.428 24.8516 262.033 24.6225 261.623 24.4195C258.134 23.0088 254.638 21.6224 251.149 20.2141C250.796 20.0701 250.21 19.848 250.195 19.6332C250.069 17.7978 250.052 15.9526 250 14C255.854 15.4156 261.208 17.3902 266.106 20.3777C266.204 20.3422 266.298 20.2955 266.385 20.2385C266.632 20.0213 266.859 19.7894 267.104 19.5698C269.951 17.0143 273.198 15.5499 277.146 15.6646C284.245 15.8721 289.615 22.0935 288.495 29.0228C287.658 34.2118 284.581 37.7729 279.859 39.9866C279.004 40.3869 278.831 40.8653 278.797 41.7415C278.77 43.3219 278.571 44.8947 278.201 46.4326C276.15 54.0892 269.118 54.6262 265.105 51.9877C262.375 50.1987 261.033 47.4699 260.217 44.4751C259.97 43.5623 259.61 43.3329 258.718 43.3744C256.138 43.4964 253.556 43.5281 250.781 43.6014C250.734 42.2711 250.699 40.9653 250.665 39.6717ZM282.834 26.8041C282.686 24.4098 280.976 22.3815 278.466 21.6322C275.837 20.8463 272.684 21.8616 270.937 24.09C274.053 26.9572 276.363 30.5732 277.643 34.5852C281.016 33.0671 283.03 29.9674 282.834 26.8041ZM264.838 37.6484L272.15 36.6721C271.375 33.7301 269.809 31.0504 267.616 28.9178L267.084 28.8983C266.38 31.693 265.654 34.4852 264.838 37.6484ZM272.624 42.359C270.44 42.669 268.256 42.9838 265.916 43.3207C266.385 44.9023 266.963 46.3936 268.446 47.3015C269.77 48.1118 271.349 47.7335 271.997 46.3399C272.555 45.139 272.8 43.7966 273.188 42.503C273.005 42.4382 272.816 42.39 272.624 42.359Z" fill="#C4A076"/>
<path d="M289.98 45.9981H285.197C284.989 45.9981 284.885 46.0884 284.885 46.2665C284.892 46.5236 284.964 46.7749 285.093 46.9981C285.222 47.2213 285.406 47.4093 285.627 47.5455C286.059 47.8825 286.591 48.0711 287.141 48.0825C287.882 48.0936 288.607 47.8694 289.209 47.443C289.366 47.3183 289.552 47.2344 289.751 47.1989C289.865 47.2052 289.975 47.2398 290.072 47.2995C290.169 47.3593 290.248 47.4422 290.304 47.5406C290.455 47.7326 290.542 47.9664 290.551 48.2094C290.551 48.678 290.245 49.1393 289.632 49.5933C288.529 50.4002 287.184 50.821 285.812 50.7892C285.12 50.8068 284.432 50.6885 283.788 50.4413C283.143 50.1941 282.554 49.8229 282.056 49.3492C281.563 48.9057 281.171 48.3639 280.907 47.7597C280.642 47.1555 280.509 46.5027 280.519 45.8443C280.505 45.1358 280.638 44.432 280.912 43.7769C281.185 43.1217 281.592 42.5293 282.108 42.0367C282.61 41.531 283.212 41.132 283.876 40.8642C284.54 40.5965 285.253 40.4656 285.97 40.4795C287.349 40.4795 288.49 40.844 289.395 41.573C289.868 41.942 290.256 42.4063 290.534 42.9349C290.8 43.4012 290.947 43.925 290.961 44.4604C290.984 44.8506 290.898 45.2395 290.714 45.5856C290.642 45.7143 290.535 45.8209 290.406 45.8937C290.277 45.9664 290.129 46.0026 289.98 45.9981ZM285.449 44.1211H286.491C286.924 44.1211 287.141 43.921 287.141 43.5231C287.153 43.1986 287.041 42.8816 286.827 42.6347C286.726 42.5211 286.601 42.431 286.46 42.3706C286.32 42.3103 286.168 42.2813 286.014 42.2857C285.854 42.2861 285.695 42.3203 285.549 42.386C285.403 42.4516 285.273 42.5472 285.167 42.6664C284.93 42.9064 284.798 43.2293 284.801 43.5646C284.793 43.6427 284.802 43.7217 284.827 43.7962C284.852 43.8707 284.893 43.939 284.947 43.9966C285.095 44.094 285.272 44.1379 285.449 44.1211Z" fill="#C4A076"/>
<path d="M297.668 43.1109V46.5133C297.654 46.8675 297.76 47.2162 297.969 47.5042C298.055 47.6258 298.169 47.7251 298.302 47.7936C298.435 47.862 298.583 47.8976 298.733 47.8972C299.036 47.9222 299.338 47.8419 299.588 47.6702C299.72 47.5396 299.895 47.4592 300.082 47.4432C300.185 47.444 300.286 47.4736 300.374 47.5283C300.461 47.5831 300.531 47.661 300.576 47.7532C300.694 47.9384 300.758 48.152 300.761 48.3707C300.761 48.8588 300.492 49.3079 299.948 49.7009C299.422 50.0862 298.827 50.3702 298.194 50.538C297.643 50.6902 297.075 50.7722 296.504 50.7821C295.558 50.8238 294.634 50.4938 293.934 49.8644C293.606 49.5557 293.349 49.1817 293.178 48.7672C293.008 48.3528 292.929 47.9073 292.946 47.4603V42.8228C292.958 42.7216 292.936 42.6191 292.881 42.5324C292.794 42.4795 292.691 42.458 292.59 42.4714H291.545C291.412 42.4885 291.278 42.4553 291.169 42.3786C291.095 42.2427 291.066 42.0875 291.085 41.9344V41.4804C291.077 41.3942 291.094 41.3074 291.135 41.2307C291.176 41.154 291.238 41.0907 291.315 41.0484L295.995 38.1391C296.124 38.0774 296.267 38.0489 296.41 38.0561H297.248C297.308 38.0481 297.37 38.0544 297.428 38.0743C297.486 38.0942 297.538 38.1273 297.581 38.1708C297.65 38.3075 297.679 38.4605 297.665 38.6126V39.994C297.648 40.1288 297.681 40.2653 297.759 40.3772C297.886 40.457 298.037 40.4898 298.186 40.47H300.067C300.154 40.4586 300.243 40.4647 300.328 40.4878C300.413 40.5108 300.492 40.5504 300.561 40.6042C300.659 40.7843 300.698 40.9895 300.675 41.1924V41.7831C300.696 42.0131 300.645 42.244 300.529 42.4445C300.461 42.5123 300.379 42.5639 300.288 42.5957C300.198 42.6274 300.101 42.6383 300.005 42.6276H298.169C298.028 42.6122 297.886 42.6497 297.771 42.7325C297.688 42.8404 297.651 42.9762 297.668 43.1109Z" fill="#C4A076"/>
<path d="M310.719 45.9981H305.935C305.728 45.9981 305.624 46.0884 305.624 46.2665C305.63 46.5237 305.702 46.7753 305.831 46.9986C305.96 47.2219 306.144 47.4098 306.365 47.5455C306.797 47.882 307.328 48.0705 307.878 48.0825C308.619 48.0941 309.345 47.8699 309.948 47.443C310.105 47.3183 310.291 47.2344 310.489 47.1989C310.603 47.2052 310.714 47.2398 310.811 47.2995C310.907 47.3593 310.987 47.4422 311.043 47.5406C311.194 47.7326 311.28 47.9664 311.29 48.2094C311.29 48.678 310.984 49.1393 310.371 49.5933C309.267 50.4002 307.923 50.821 306.551 50.7892C305.859 50.8065 305.171 50.6882 304.526 50.441C303.88 50.1938 303.291 49.8227 302.792 49.3492C302.3 48.9052 301.909 48.3633 301.645 47.7592C301.38 47.155 301.249 46.5024 301.258 45.8443C301.243 45.1358 301.377 44.432 301.65 43.7769C301.924 43.1217 302.331 42.5293 302.847 42.0367C303.349 41.531 303.951 41.132 304.615 40.8642C305.279 40.5965 305.992 40.4656 306.709 40.4795C308.088 40.4795 309.229 40.844 310.134 41.573C310.607 41.942 310.995 42.4063 311.273 42.9349C311.539 43.4012 311.686 43.925 311.7 44.4604C311.723 44.8506 311.637 45.2395 311.453 45.5856C311.381 45.7143 311.274 45.8209 311.145 45.8937C311.015 45.9664 310.868 46.0026 310.719 45.9981ZM306.187 44.1211H307.23C307.663 44.1211 307.878 43.921 307.878 43.5231C307.89 43.1989 307.779 42.8819 307.566 42.6347C307.465 42.5209 307.339 42.4307 307.198 42.3703C307.057 42.31 306.904 42.2811 306.751 42.2857C306.592 42.2876 306.436 42.3224 306.292 42.388C306.148 42.4537 306.02 42.5485 305.916 42.6664C305.678 42.9064 305.547 43.2293 305.55 43.5646C305.542 43.6427 305.55 43.7217 305.576 43.7962C305.601 43.8707 305.642 43.939 305.696 43.9966C305.841 44.0918 306.014 44.1357 306.187 44.1211Z" fill="#C4A076"/>
<path d="M317.947 41.2533C317.947 41.2802 317.947 41.3436 317.947 41.4413C317.951 41.5233 317.962 41.6049 317.979 41.6853C317.993 41.7513 318.01 41.8165 318.031 41.8806C318.048 41.9443 318.084 42.0013 318.135 42.0441C318.184 42.0864 318.247 42.1091 318.313 42.1076C318.382 42.1076 318.49 42.0295 318.636 41.8635C318.782 41.6976 318.938 41.5291 319.106 41.329C319.304 41.1055 319.545 40.923 319.815 40.792C320.119 40.6313 320.459 40.5475 320.803 40.548C321.097 40.5384 321.389 40.5905 321.661 40.7007C321.933 40.811 322.178 40.9768 322.38 41.1874C322.586 41.4058 322.746 41.6622 322.852 41.942C322.958 42.2218 323.006 42.5195 322.995 42.8178C322.999 43.1293 322.938 43.4381 322.816 43.7253C322.694 44.0124 322.514 44.2718 322.286 44.4873C322.061 44.7149 321.792 44.8946 321.495 45.0155C321.197 45.1364 320.878 45.1959 320.556 45.1903C320.266 45.1966 319.979 45.1321 319.721 45.0023C319.382 44.8016 319.072 44.5551 318.802 44.2701C318.702 44.1531 318.56 44.0794 318.406 44.0651C318.314 44.0606 318.224 44.0905 318.153 44.1488C318.082 44.2071 318.036 44.2896 318.023 44.3799C317.949 44.8259 317.921 45.2781 317.939 45.7297C317.939 46.8866 317.981 47.5968 318.063 47.8653C318.145 48.1338 318.389 48.3291 318.804 48.4535C319.42 48.6317 319.724 48.9417 319.724 49.403C319.724 49.9106 319.439 50.2597 318.869 50.4427C318.298 50.6258 317.23 50.7234 315.674 50.7234C313.349 50.7234 312.186 50.2898 312.185 49.4225C312.185 49.0784 312.395 48.7708 312.812 48.495C313.083 48.3288 313.28 48.0671 313.363 47.7628C313.467 47.1772 313.513 46.5828 313.499 45.9884C313.514 45.3294 313.521 44.768 313.521 44.3189C313.537 44.0615 313.471 43.8057 313.334 43.5867C313.235 43.4339 313.083 43.3226 312.906 43.2743C312.741 43.2378 312.591 43.1527 312.476 43.0302C312.411 42.9615 312.361 42.8804 312.328 42.7919C312.296 42.7033 312.282 42.6092 312.288 42.5152C312.288 42.1979 312.491 41.9074 312.896 41.639C313.34 41.3525 313.826 41.1368 314.337 40.9995C314.862 40.8494 315.394 40.7288 315.933 40.6383C316.336 40.5656 316.744 40.524 317.154 40.5138C317.366 40.4901 317.58 40.5373 317.762 40.648C317.891 40.8234 317.956 41.0367 317.947 41.2533Z" fill="#C4A076"/>
</g>
<g clip-path="url(#clip1_155_532)">
<path d="M89.1321 48.539L92.225 50.4929L89.1321 52.4468C89.0758 52.4883 89.0361 52.5517 89.0208 52.6241C89.0056 52.6964 89.0161 52.7724 89.0501 52.8367C89.0841 52.901 89.1391 52.9487 89.2041 52.9703C89.269 52.9918 89.3391 52.9856 89.4 52.9529L92.8661 50.7645C92.9066 50.7344 92.9397 50.694 92.9627 50.6466C92.9856 50.5993 92.9976 50.5465 92.9976 50.4929C92.9976 50.4394 92.9856 50.3866 92.9627 50.3393C92.9397 50.2919 92.9066 50.2514 92.8661 50.2213L89.4 48.033C89.36 48.007 89.3143 47.9934 89.2678 47.9939C89.2087 47.9934 89.151 48.0144 89.1039 48.0535C89.0567 48.0926 89.0227 48.1477 89.0072 48.2102C88.9917 48.2727 88.9956 48.339 89.0182 48.3989C89.0408 48.4587 89.0808 48.5087 89.1321 48.541L89.1321 48.539Z" fill="#C8A378"/>
</g>
<path d="M33.492 26.282H35.368V39.246H33.492V26.282ZM24.882 27.472H32.162V28.956H24.882V27.472ZM24.714 36.292L24.532 34.766C26.87 34.766 29.992 34.724 32.666 34.402L32.764 35.76C30.034 36.222 27.052 36.278 24.714 36.292ZM26.002 28.634H27.808V35.172H26.002V28.634ZM29.236 28.634H31.042V35.172H29.236V28.634ZM46.4689 26.268H48.3169V39.274H46.4689V26.268ZM44.2429 30.832H46.6789V32.344H44.2429V30.832ZM38.0269 34.836H39.0629C41.2049 34.836 42.8009 34.808 44.6349 34.514L44.8029 35.998C42.9269 36.292 41.2469 36.348 39.0629 36.348H38.0269V34.836ZM38.0269 27.36H44.0329V28.872H39.8749V35.312H38.0269V27.36ZM39.4549 30.972H43.5849V32.428H39.4549V30.972ZM59.6698 26.282H61.4338V35.158H59.6698V26.282ZM56.0298 29.684H58.0178V31.168H56.0298V29.684ZM57.2198 26.534H58.9558V33.968H57.2198V26.534ZM50.4298 27.248H56.3658V28.746H50.4298V27.248ZM50.4018 33.744L50.2198 32.246C51.9138 32.246 54.6158 32.232 56.5618 31.98L56.6458 33.338C54.6578 33.716 52.0678 33.744 50.4018 33.744ZM51.2278 28.298H52.9078V32.61H51.2278V28.298ZM53.8598 28.298H55.5258V32.61H53.8598V28.298ZM56.0298 34.5H57.6118V34.822C57.6118 37.02 55.8058 38.77 52.5438 39.204L51.8858 37.762C54.7138 37.44 56.0298 36.11 56.0298 34.822V34.5ZM56.2958 34.5H57.8778V34.822C57.8778 36.11 59.2078 37.44 62.0218 37.762L61.3638 39.204C58.1158 38.77 56.2958 37.02 56.2958 34.822V34.5ZM72.0867 26.268H73.9627V39.274H72.0867V26.268ZM66.9767 27.178C68.9367 27.178 70.3787 28.97 70.3787 31.798C70.3787 34.654 68.9367 36.446 66.9767 36.446C65.0167 36.446 63.5747 34.654 63.5747 31.798C63.5747 28.97 65.0167 27.178 66.9767 27.178ZM66.9767 28.872C66.0107 28.872 65.3527 29.894 65.3527 31.798C65.3527 33.73 66.0107 34.766 66.9767 34.766C67.9427 34.766 68.5867 33.73 68.5867 31.798C68.5867 29.894 67.9427 28.872 66.9767 28.872ZM88.8924 26.268H90.7544V39.274H88.8924V26.268ZM86.6104 31.252H89.3124V32.75H86.6104V31.252ZM82.8724 29.642H84.3284V30.314C84.3284 33.044 83.1524 35.802 80.8004 36.852L79.8064 35.424C81.9064 34.458 82.8724 32.26 82.8724 30.314V29.642ZM83.2784 29.642H84.7204V30.314C84.7204 32.176 85.7144 34.276 87.8144 35.214L86.8344 36.628C84.4544 35.62 83.2784 32.96 83.2784 30.314V29.642ZM80.2404 28.396H87.3104V29.866H80.2404V28.396ZM82.8724 26.576H84.7344V29.152H82.8724V26.576ZM98.6213 26.52C101.477 26.52 103.311 27.486 103.311 29.054C103.311 30.622 101.477 31.574 98.6213 31.574C95.7653 31.574 93.9313 30.622 93.9313 29.054C93.9313 27.486 95.7653 26.52 98.6213 26.52ZM98.6213 27.962C96.8433 27.962 95.8493 28.312 95.8493 29.054C95.8493 29.782 96.8433 30.146 98.6213 30.146C100.385 30.146 101.393 29.782 101.393 29.054C101.393 28.312 100.385 27.962 98.6213 27.962ZM94.1133 34.682H103.073V39.106H94.1133V34.682ZM101.253 36.152H95.9473V37.636H101.253V36.152ZM92.7553 32.316H104.473V33.786H92.7553V32.316ZM114.524 26.268H116.4V39.274H114.524V26.268ZM109.414 27.178C111.374 27.178 112.816 28.97 112.816 31.798C112.816 34.654 111.374 36.446 109.414 36.446C107.454 36.446 106.012 34.654 106.012 31.798C106.012 28.97 107.454 27.178 109.414 27.178ZM109.414 28.872C108.448 28.872 107.79 29.894 107.79 31.798C107.79 33.73 108.448 34.766 109.414 34.766C110.38 34.766 111.024 33.73 111.024 31.798C111.024 29.894 110.38 28.872 109.414 28.872ZM127.417 26.296H129.293V35.746H127.417V26.296ZM120.655 37.538H129.615V39.022H120.655V37.538ZM120.655 34.836H122.517V38.308H120.655V34.836ZM121.551 26.996H123.091V28.256C123.091 30.79 121.929 33.128 119.409 34.01L118.471 32.526C120.641 31.784 121.551 29.978 121.551 28.256V26.996ZM121.929 26.996H123.455V28.256C123.455 29.95 124.337 31.616 126.465 32.302L125.513 33.786C123.063 32.96 121.929 30.762 121.929 28.256V26.996ZM139.68 26.268H141.556V39.232H139.68V26.268ZM141.066 31.224H143.348V32.75H141.066V31.224ZM136.278 27.612H138.098C138.098 31.504 136.614 34.836 132.302 37.006L131.266 35.592C134.668 33.828 136.278 31.448 136.278 27.934V27.612ZM131.98 27.612H137.23V29.11H131.98V27.612ZM146.861 32.862H148.709V36.502H146.861V32.862ZM151.565 32.862H153.427V36.502H151.565V32.862ZM144.285 36.236H156.017V37.748H144.285V36.236ZM150.137 26.912C152.923 26.912 154.981 28.284 154.981 30.398C154.981 32.512 152.923 33.87 150.137 33.87C147.337 33.87 145.293 32.512 145.293 30.398C145.293 28.284 147.337 26.912 150.137 26.912ZM150.137 28.368C148.331 28.368 147.127 29.11 147.127 30.398C147.127 31.672 148.331 32.428 150.137 32.428C151.943 32.428 153.147 31.672 153.147 30.398C153.147 29.11 151.943 28.368 150.137 28.368ZM158.739 32.015C159.64 31.8843 160.267 31.7047 160.622 31.476C160.977 31.2473 161.154 30.965 161.154 30.629C161.154 30.293 161.009 30.0387 160.72 29.866C160.431 29.6887 159.976 29.6 159.355 29.6C158.944 29.6 158.515 29.6373 158.067 29.712C157.624 29.782 157.213 29.88 156.835 30.006V27.899C157.204 27.7823 157.649 27.6867 158.172 27.612C158.695 27.5373 159.192 27.5 159.663 27.5C161.044 27.5 162.083 27.7497 162.778 28.249C163.473 28.7483 163.821 29.4693 163.821 30.412C163.821 31.8633 162.897 32.8317 161.049 33.317L160.867 34.493H159.208L158.739 32.015ZM160.041 38.133C159.504 38.133 159.08 38 158.767 37.734C158.454 37.4633 158.298 37.0993 158.298 36.642C158.298 36.18 158.452 35.816 158.76 35.55C159.073 35.284 159.5 35.151 160.041 35.151C160.582 35.151 161.007 35.2863 161.315 35.557C161.628 35.8277 161.784 36.1893 161.784 36.642C161.784 36.936 161.714 37.1973 161.574 37.426C161.434 37.65 161.231 37.825 160.965 37.951C160.704 38.0723 160.396 38.133 160.041 38.133Z" fill="white"/>
<path d="M32.648 46.384H33.312V53.632H32.648V46.384ZM29.496 46.944C30.568 46.944 31.336 47.928 31.336 49.464C31.336 51.008 30.568 51.992 29.496 51.992C28.432 51.992 27.664 51.008 27.664 49.464C27.664 47.928 28.432 46.944 29.496 46.944ZM29.496 47.544C28.792 47.544 28.296 48.296 28.296 49.464C28.296 50.64 28.792 51.408 29.496 51.408C30.208 51.408 30.696 50.64 30.696 49.464C30.696 48.296 30.208 47.544 29.496 47.544ZM36.3674 48.84H37.0234V50.208H36.3674V48.84ZM39.0234 48.84H39.6794V50.208H39.0234V48.84ZM34.7514 49.968H41.2874V50.504H34.7514V49.968ZM38.0154 51.048C39.5674 51.048 40.4954 51.504 40.4954 52.328C40.4954 53.152 39.5674 53.616 38.0154 53.616C36.4634 53.616 35.5354 53.152 35.5354 52.328C35.5354 51.504 36.4634 51.048 38.0154 51.048ZM38.0154 51.56C36.8874 51.56 36.2074 51.84 36.2074 52.328C36.2074 52.824 36.8874 53.096 38.0154 53.096C39.1514 53.096 39.8234 52.824 39.8234 52.328C39.8234 51.84 39.1514 51.56 38.0154 51.56ZM38.0234 46.52C39.5914 46.52 40.5674 47.024 40.5674 47.872C40.5674 48.712 39.5914 49.208 38.0234 49.208C36.4474 49.208 35.4794 48.712 35.4794 47.872C35.4794 47.024 36.4474 46.52 38.0234 46.52ZM38.0234 47.04C36.8714 47.04 36.1594 47.344 36.1594 47.872C36.1594 48.392 36.8714 48.696 38.0234 48.696C39.1754 48.696 39.8874 48.392 39.8874 47.872C39.8874 47.344 39.1754 47.04 38.0234 47.04ZM49.1005 46.384H49.7725V53.624H49.1005V46.384ZM49.5885 49.32H50.9245V49.872H49.5885V49.32ZM47.2525 47.168H47.9005C47.9005 49.224 46.9565 51.08 44.6205 52.256L44.2525 51.744C46.2525 50.728 47.2525 49.184 47.2525 47.272V47.168ZM44.5885 47.168H47.5965V47.712H44.5885V47.168ZM56.8199 46.384H57.4839V53.632H56.8199V46.384ZM53.6679 46.944C54.7399 46.944 55.5079 47.928 55.5079 49.464C55.5079 51.008 54.7399 51.992 53.6679 51.992C52.6039 51.992 51.8359 51.008 51.8359 49.464C51.8359 47.928 52.6039 46.944 53.6679 46.944ZM53.6679 47.544C52.9639 47.544 52.4679 48.296 52.4679 49.464C52.4679 50.64 52.9639 51.408 53.6679 51.408C54.3799 51.408 54.8679 50.64 54.8679 49.464C54.8679 48.296 54.3799 47.544 53.6679 47.544ZM59.7553 49.856H64.7233V50.4H59.7553V49.856ZM58.9313 52.096H65.4833V52.648H58.9313V52.096ZM59.7553 47.056H64.6513V47.608H60.4193V50.096H59.7553V47.056ZM68.3844 52.152H74.9364V52.704H68.3844V52.152ZM71.3124 50.424H71.9764V52.312H71.3124V50.424ZM69.1524 46.904H69.8084V48.192H73.4964V46.904H74.1524V50.6H69.1524V46.904ZM69.8084 48.728V50.056H73.4964V48.728H69.8084ZM81.0078 46.392H81.6718V53.624H81.0078V46.392ZM78.8878 47.168H79.5438C79.5438 49.264 78.5998 51.096 76.1838 52.28L75.8318 51.744C77.9198 50.736 78.8878 49.2 78.8878 47.28V47.168ZM76.1598 47.168H79.1758V47.712H76.1598V47.168Z" fill="#C8A378"/>
<defs>
<clipPath id="clip0_155_532">
<rect width="73" height="45" fill="white" transform="translate(250 14)"/>
</clipPath>
<clipPath id="clip1_155_532">
<rect width="4" height="5" fill="white" transform="translate(93 53) rotate(-180)"/>
</clipPath>
</defs>
</svg>
