<svg width="44" height="27" viewBox="0 0 44 27" fill="none" xmlns="http://www.w3.org/2000/svg">
<g clip-path="url(#clip0_148_242)">
<path d="M30.9012 23.3652H31.3406V23.7664H31.3508C31.4643 23.6179 31.6116 23.4986 31.7805 23.4187C31.9494 23.3387 32.135 23.3002 32.3218 23.3066C32.4951 23.305 32.667 23.3377 32.8277 23.4027C32.9884 23.4677 33.1347 23.5637 33.2582 23.6854C33.3817 23.807 33.48 23.9517 33.5475 24.1114C33.615 24.2711 33.6503 24.4425 33.6515 24.6158C33.654 24.7943 33.621 24.9715 33.5543 25.1371C33.4875 25.3027 33.3885 25.4534 33.263 25.5803C33.1374 25.7072 32.9878 25.8079 32.823 25.8763C32.6581 25.9448 32.4812 25.9798 32.3027 25.9792C32.1192 25.9881 31.9363 25.9516 31.7703 25.8729C31.6043 25.7942 31.4602 25.6758 31.3508 25.5281H31.3406V26.9926H30.9012V23.3652ZM32.2456 23.7181C32.0036 23.7235 31.7733 23.8236 31.6044 23.9969C31.4354 24.1703 31.3412 24.403 31.342 24.6451C31.3417 24.8891 31.4381 25.1234 31.6103 25.2963C31.7824 25.4693 32.0162 25.5669 32.2603 25.5677C32.3835 25.5679 32.5056 25.5434 32.6192 25.4956C32.7328 25.4477 32.8356 25.3775 32.9216 25.2891C33.0075 25.2007 33.0748 25.0959 33.1194 24.981C33.164 24.8661 33.1851 24.7434 33.1814 24.6202C33.1801 24.4992 33.1547 24.3798 33.1068 24.2687C33.0589 24.1577 32.9894 24.0572 32.9023 23.9733C32.8152 23.8894 32.7123 23.8236 32.5996 23.7798C32.4868 23.7359 32.3665 23.715 32.2456 23.7181Z" fill="#C4A076"/>
<path d="M36.6536 25.4258C36.5159 25.5992 36.3406 25.7391 36.141 25.835C35.9413 25.9308 35.7226 25.9802 35.5011 25.9793C34.5946 25.9793 34.1084 25.3218 34.1084 24.6408C34.1024 24.4654 34.1323 24.2905 34.1961 24.127C34.26 23.9635 34.3566 23.8147 34.48 23.6898C34.6034 23.5649 34.751 23.4665 34.9137 23.4007C35.0764 23.3348 35.2509 23.3028 35.4264 23.3067C36.2158 23.3067 36.7664 23.9086 36.7664 24.8122H34.5697C34.6024 25.0293 34.7143 25.2266 34.8839 25.3661C35.0534 25.5057 35.2686 25.5775 35.4879 25.5678C35.6465 25.5643 35.8023 25.5254 35.944 25.454C36.0856 25.3825 36.2095 25.2803 36.3066 25.1548L36.6536 25.4258ZM36.267 24.449C36.2459 24.2425 36.147 24.0519 35.9903 23.9158C35.8335 23.7798 35.6309 23.7086 35.4235 23.7168C35.2157 23.7075 35.0123 23.7783 34.8551 23.9145C34.6979 24.0507 34.5989 24.242 34.5785 24.449H36.267Z" fill="#C4A076"/>
<path d="M37.424 22.7473H37.8633V23.3653H38.2704V23.7519H37.8633V25.3218C37.8633 25.4595 37.9072 25.5093 38.08 25.5093H38.2807V25.9164C38.2162 25.9164 38.1137 25.9164 38.0112 25.9164C37.5602 25.9164 37.4254 25.7597 37.4254 25.3672V23.7519H37.0725V23.3653H37.4254L37.424 22.7473Z" fill="#C4A076"/>
<path d="M0.393936 15.403C0.366112 14.3691 0.366112 14.3677 1.39122 14.3399L5.55758 14.23C5.66365 11.5879 6.35808 9.00283 7.59023 6.66323C7.3656 6.51097 7.13127 6.3735 6.88876 6.25172C4.82096 5.40527 2.74877 4.57347 0.680967 3.72848C0.471551 3.64208 0.124479 3.50882 0.115693 3.37995C0.0410058 2.27868 0.0307534 1.17156 0 0C3.46927 0.849379 6.64273 2.03412 9.54526 3.8266C9.60349 3.80532 9.65903 3.77731 9.71075 3.74313C9.85719 3.61279 9.99192 3.47367 10.1369 3.34187C11.8239 1.80859 13.7482 0.929925 16.0884 0.998754C20.2958 1.12323 23.478 4.8561 22.8146 9.01367C22.3182 12.1271 20.4949 14.2637 17.6964 15.592C17.1897 15.8321 17.0872 16.1192 17.0667 16.6449C17.051 17.5931 16.9327 18.5368 16.7137 19.4596C15.4982 24.0535 11.3304 24.3757 8.95216 22.7927C7.33395 21.7192 6.53875 20.082 6.05549 18.2851C5.90904 17.7374 5.69523 17.5997 5.16657 17.6246C3.63769 17.6978 2.10734 17.7169 0.462766 17.7608C0.434941 16.9627 0.414439 16.1792 0.393936 15.403ZM19.4596 7.68249C19.3717 6.24587 18.3583 5.02891 16.8704 4.57933C15.3123 4.10778 13.4436 4.71699 12.4083 6.05403C14.255 7.77435 15.6243 9.94392 16.3828 12.3511C18.3817 11.4403 19.5753 9.58041 19.4596 7.68249ZM8.794 14.189L13.1273 13.6032C12.6684 11.8381 11.7397 10.2303 10.44 8.9507L10.1252 8.93899C9.70782 10.6158 9.27727 12.2911 8.794 14.189ZM13.4085 17.0154C12.1139 17.2014 10.8193 17.3903 9.4325 17.5924C9.71074 18.5414 10.0534 19.4361 10.9321 19.9809C11.717 20.4671 12.6528 20.2401 13.0365 19.4039C13.3675 18.6834 13.5124 17.878 13.7424 17.1018C13.6339 17.0629 13.5222 17.034 13.4085 17.0154Z" fill="#C4A076"/>
<path d="M23.6948 19.1989H20.8596C20.7366 19.1989 20.6751 19.2531 20.6751 19.36C20.6793 19.5143 20.7216 19.6651 20.7982 19.799C20.8749 19.9329 20.9835 20.0457 21.1144 20.1274C21.3706 20.3296 21.6858 20.4427 22.0121 20.4496C22.4513 20.4563 22.8809 20.3218 23.2379 20.0659C23.3309 19.9911 23.4412 19.9408 23.5586 19.9194C23.6261 19.9232 23.6916 19.944 23.7489 19.9798C23.8063 20.0157 23.8537 20.0654 23.8866 20.1245C23.9761 20.2396 24.0274 20.38 24.0331 20.5257C24.0331 20.8069 23.8515 21.0837 23.4883 21.3561C22.8343 21.8402 22.0377 22.0927 21.2243 22.0736C20.8145 22.0842 20.4067 22.0132 20.0246 21.8649C19.6425 21.7165 19.2937 21.4938 18.9983 21.2096C18.7063 20.9435 18.4741 20.6185 18.3171 20.2559C18.1601 19.8934 18.0818 19.5017 18.0874 19.1067C18.0788 18.6816 18.158 18.2593 18.3201 17.8662C18.4821 17.4731 18.7234 17.1177 19.0291 16.8221C19.3268 16.5187 19.6835 16.2793 20.0771 16.1186C20.4707 15.958 20.8929 15.8794 21.318 15.8878C22.1352 15.8878 22.8117 16.1065 23.3477 16.5439C23.6282 16.7653 23.8583 17.0439 24.0228 17.361C24.1808 17.6408 24.2678 17.9551 24.2762 18.2763C24.2894 18.5105 24.2388 18.7438 24.1297 18.9514C24.087 19.0287 24.0238 19.0926 23.947 19.1363C23.8703 19.18 23.783 19.2016 23.6948 19.1989ZM21.009 18.0728H21.627C21.8833 18.0728 22.0121 17.9527 22.0121 17.714C22.0191 17.5193 21.9527 17.329 21.8262 17.1809C21.7662 17.1128 21.6919 17.0587 21.6086 17.0225C21.5253 16.9863 21.4351 16.9689 21.3444 16.9715C21.2492 16.9718 21.1552 16.9923 21.0686 17.0317C20.982 17.0711 20.9048 17.1284 20.842 17.2C20.7014 17.3439 20.6235 17.5377 20.6253 17.7389C20.6204 17.7857 20.6256 17.8331 20.6405 17.8778C20.6554 17.9225 20.6797 17.9635 20.7117 17.9981C20.7992 18.0565 20.9043 18.0829 21.009 18.0728Z" fill="#C4A076"/>
<path d="M28.2506 17.4665V19.508C28.2424 19.7205 28.3052 19.9297 28.4293 20.1025C28.48 20.1755 28.5477 20.2351 28.6265 20.2762C28.7053 20.3172 28.7929 20.3385 28.8818 20.3383C29.0614 20.3533 29.2406 20.3052 29.3885 20.2021C29.4671 20.1237 29.5708 20.0755 29.6814 20.0659C29.7427 20.0664 29.8026 20.0841 29.8544 20.117C29.9062 20.1499 29.9477 20.1966 29.9743 20.2519C30.0441 20.363 30.082 20.4912 30.0841 20.6224C30.0841 20.9153 29.9245 21.1847 29.6023 21.4205C29.2903 21.6517 28.9376 21.8221 28.5625 21.9228C28.2362 22.0141 27.8996 22.0633 27.5608 22.0693C27.0003 22.0943 26.4527 21.8963 26.0378 21.5186C25.8436 21.3334 25.6909 21.109 25.59 20.8603C25.489 20.6117 25.442 20.3444 25.452 20.0762V17.2937C25.4596 17.233 25.4462 17.1715 25.414 17.1194C25.3623 17.0877 25.3013 17.0748 25.2412 17.0828H24.6217C24.5431 17.0931 24.4636 17.0732 24.3991 17.0272C24.3554 16.9456 24.338 16.8525 24.3493 16.7606V16.4883C24.3444 16.4365 24.3547 16.3844 24.3789 16.3384C24.4031 16.2924 24.4401 16.2544 24.4855 16.2291L27.2592 14.4834C27.3357 14.4465 27.4203 14.4293 27.5052 14.4336H28.0016C28.0377 14.4289 28.0743 14.4326 28.1087 14.4446C28.143 14.4565 28.1741 14.4764 28.1993 14.5025C28.2402 14.5845 28.2574 14.6763 28.2491 14.7675V15.5964C28.2387 15.6773 28.2585 15.7592 28.3048 15.8263C28.38 15.8742 28.4698 15.8939 28.5581 15.882H29.6726C29.7243 15.8752 29.7769 15.8788 29.8272 15.8927C29.8775 15.9065 29.9245 15.9302 29.9655 15.9625C30.0233 16.0706 30.0468 16.1937 30.0328 16.3155V16.6699C30.0454 16.8079 30.0152 16.9464 29.9464 17.0667C29.9064 17.1074 29.8576 17.1384 29.8038 17.1574C29.7501 17.1764 29.6927 17.183 29.636 17.1766H28.5479C28.4642 17.1673 28.3801 17.1898 28.3121 17.2395C28.2628 17.3043 28.2407 17.3857 28.2506 17.4665Z" fill="#C4A076"/>
<path d="M35.9858 19.1989H33.1506C33.0276 19.1989 32.9661 19.2531 32.9661 19.36C32.9699 19.5143 33.012 19.6653 33.0887 19.7993C33.1654 19.9332 33.2743 20.046 33.4054 20.1274C33.6612 20.3293 33.9759 20.4424 34.3017 20.4496C34.7413 20.4566 35.1716 20.3221 35.5289 20.0659C35.6219 19.9911 35.7322 19.9408 35.8496 19.9194C35.9171 19.9232 35.9826 19.944 36.04 19.9798C36.0973 20.0157 36.1447 20.0654 36.1776 20.1245C36.2672 20.2396 36.3184 20.38 36.3241 20.5257C36.3241 20.8069 36.1425 21.0837 35.7793 21.3561C35.1253 21.8402 34.3287 22.0927 33.5153 22.0736C33.1053 22.084 32.6974 22.013 32.315 21.8647C31.9327 21.7164 31.5836 21.4937 31.2879 21.2096C30.9963 20.9432 30.7646 20.6181 30.6078 20.2556C30.4511 19.8931 30.3729 19.5015 30.3784 19.1067C30.3699 18.6816 30.4491 18.2593 30.6111 17.8662C30.7731 17.4731 31.0145 17.1177 31.3201 16.8221C31.6178 16.5187 31.9745 16.2793 32.3681 16.1186C32.7617 15.958 33.184 15.8794 33.609 15.8878C34.4262 15.8878 35.1027 16.1065 35.6387 16.5439C35.9192 16.7653 36.1493 17.0439 36.3138 17.361C36.4718 17.6408 36.5588 17.9551 36.5672 18.2763C36.5804 18.5105 36.5298 18.7438 36.4207 18.9514C36.378 19.0287 36.3148 19.0926 36.238 19.1363C36.1613 19.18 36.074 19.2016 35.9858 19.1989ZM33.3 18.0728H33.918C34.1743 18.0728 34.3017 17.9527 34.3017 17.714C34.3091 17.5195 34.2432 17.3293 34.1172 17.1809C34.057 17.1127 33.9824 17.0585 33.8989 17.0223C33.8154 16.9861 33.7249 16.9688 33.6339 16.9715C33.54 16.9726 33.4473 16.9936 33.362 17.0329C33.2767 17.0723 33.2007 17.1292 33.1389 17.2C32.9983 17.3439 32.9204 17.5377 32.9222 17.7389C32.9173 17.7857 32.9225 17.8331 32.9374 17.8778C32.9523 17.9225 32.9766 17.9635 33.0086 17.9981C33.0945 18.0552 33.1972 18.0815 33.3 18.0728Z" fill="#C4A076"/>
<path d="M40.2693 16.3521C40.2693 16.3682 40.2693 16.4063 40.2693 16.4649C40.272 16.5141 40.2784 16.563 40.2884 16.6113C40.2964 16.6509 40.3067 16.69 40.3191 16.7285C40.3292 16.7667 40.3507 16.8009 40.3806 16.8266C40.4098 16.852 40.4474 16.8655 40.4861 16.8647C40.5271 16.8647 40.5915 16.8178 40.6779 16.7182C40.7643 16.6186 40.8566 16.5176 40.9562 16.3975C41.0736 16.2634 41.2164 16.1539 41.3765 16.0753C41.5566 15.9789 41.7579 15.9286 41.9622 15.9289C42.1362 15.9232 42.3095 15.9544 42.4705 16.0205C42.6316 16.0867 42.7768 16.1862 42.8966 16.3126C43.0188 16.4436 43.1139 16.5974 43.1764 16.7653C43.239 16.9332 43.2678 17.1118 43.2612 17.2908C43.2634 17.4776 43.2273 17.663 43.155 17.8353C43.0827 18.0076 42.9758 18.1632 42.8409 18.2925C42.7079 18.429 42.5483 18.5369 42.372 18.6094C42.1957 18.6819 42.0064 18.7176 41.8158 18.7143C41.644 18.7181 41.474 18.6793 41.3208 18.6015C41.1197 18.481 40.9364 18.3332 40.776 18.1622C40.7171 18.0919 40.633 18.0477 40.5417 18.0391C40.4871 18.0364 40.4335 18.0544 40.3914 18.0894C40.3494 18.1243 40.322 18.1739 40.3147 18.2281C40.2709 18.4956 40.2542 18.767 40.2649 19.0379C40.2649 19.732 40.2898 20.1582 40.3382 20.3193C40.3865 20.4804 40.5315 20.5975 40.7775 20.6722C41.1421 20.7791 41.3223 20.9651 41.3223 21.2419C41.3223 21.5465 41.1539 21.7559 40.8156 21.8657C40.4773 21.9756 39.8446 22.0342 38.922 22.0342C37.5445 22.0342 36.8552 21.774 36.8542 21.2536C36.8542 21.0471 36.9787 20.8626 37.2262 20.6971C37.3869 20.5974 37.5036 20.4403 37.5528 20.2578C37.6145 19.9064 37.6414 19.5498 37.6333 19.1931C37.6421 18.7977 37.6465 18.4609 37.6465 18.1914C37.6557 18.037 37.6168 17.8835 37.5352 17.7521C37.4769 17.6604 37.3866 17.5937 37.2819 17.5647C37.1841 17.5428 37.0952 17.4917 37.0271 17.4182C36.9884 17.377 36.9586 17.3283 36.9395 17.2752C36.9203 17.2221 36.9123 17.1656 36.9158 17.1092C36.9158 16.9188 37.0358 16.7446 37.276 16.5835C37.5387 16.4116 37.8268 16.2821 38.1298 16.1998C38.4408 16.1097 38.7566 16.0374 39.0758 15.9831C39.3147 15.9395 39.5565 15.9145 39.7992 15.9084C39.925 15.8941 40.0518 15.9225 40.1595 15.9889C40.236 16.0941 40.2747 16.2221 40.2693 16.3521Z" fill="#C4A076"/>
</g>
<defs>
<clipPath id="clip0_148_242">
<rect width="43.2641" height="27" fill="white"/>
</clipPath>
</defs>
</svg>
