<svg width="390" height="232" viewBox="0 0 390 232" fill="none" xmlns="http://www.w3.org/2000/svg">
<path d="M0 0H390V232H0V0Z" fill="url(#paint0_linear_155_687)"/>
<path d="M43.64 53.416C44.252 53.528 44.712 53.77 45.02 54.142C45.328 54.514 45.482 54.99 45.482 55.57C45.482 56.126 45.346 56.588 45.074 56.956C44.806 57.324 44.374 57.604 43.778 57.796C43.186 57.984 42.406 58.078 41.438 58.078C40.67 58.078 39.886 58.024 39.086 57.916V49.288C39.942 49.112 40.814 49.024 41.702 49.024C42.926 49.024 43.82 49.22 44.384 49.612C44.948 50.004 45.23 50.602 45.23 51.406C45.23 51.914 45.098 52.344 44.834 52.696C44.57 53.048 44.172 53.288 43.64 53.416ZM41.798 49.816C41.138 49.816 40.562 49.862 40.07 49.954V53.044H42.038C42.81 53.044 43.376 52.916 43.736 52.66C44.096 52.4 44.276 51.994 44.276 51.442C44.276 51.054 44.192 50.742 44.024 50.506C43.86 50.266 43.596 50.092 43.232 49.984C42.872 49.872 42.394 49.816 41.798 49.816ZM41.642 57.286C42.37 57.286 42.944 57.222 43.364 57.094C43.788 56.966 44.088 56.774 44.264 56.518C44.444 56.262 44.534 55.932 44.534 55.528C44.534 54.948 44.342 54.524 43.958 54.256C43.578 53.984 42.982 53.848 42.17 53.848H40.07V57.19C40.518 57.254 41.042 57.286 41.642 57.286ZM46.9233 51.49H47.7453L47.8293 52.36H47.8893C48.1213 52.064 48.4193 51.834 48.7833 51.67C49.1513 51.506 49.5333 51.424 49.9293 51.424C50.1333 51.424 50.3333 51.442 50.5293 51.478V52.39C50.3493 52.358 50.1333 52.342 49.8813 52.342C49.5293 52.342 49.1693 52.418 48.8013 52.57C48.4373 52.722 48.1393 52.944 47.9073 53.236V58H46.9233V51.49ZM53.423 51.388C54.019 51.388 54.509 51.464 54.893 51.616C55.277 51.764 55.565 52.012 55.757 52.36C55.953 52.708 56.051 53.178 56.051 53.77V58H55.229L55.157 57.262H55.091C54.867 57.526 54.575 57.734 54.215 57.886C53.855 58.034 53.473 58.108 53.069 58.108C52.637 58.108 52.265 58.036 51.953 57.892C51.645 57.748 51.409 57.542 51.245 57.274C51.081 57.006 50.999 56.69 50.999 56.326C50.999 55.758 51.195 55.318 51.587 55.006C51.979 54.69 52.605 54.49 53.465 54.406L55.085 54.232V53.728C55.085 53.332 55.019 53.022 54.887 52.798C54.759 52.574 54.565 52.416 54.305 52.324C54.049 52.232 53.715 52.186 53.303 52.186C53.015 52.186 52.707 52.212 52.379 52.264C52.051 52.312 51.733 52.388 51.425 52.492V51.694C51.709 51.594 52.029 51.518 52.385 51.466C52.741 51.414 53.087 51.388 53.423 51.388ZM53.309 57.352C53.641 57.352 53.959 57.288 54.263 57.16C54.571 57.028 54.845 56.832 55.085 56.572V54.886L53.531 55.054C52.987 55.118 52.595 55.246 52.355 55.438C52.115 55.626 51.995 55.894 51.995 56.242C51.995 56.598 52.105 56.872 52.325 57.064C52.545 57.256 52.873 57.352 53.309 57.352ZM57.9272 51.49H58.7552L58.8272 52.234H58.8932C59.1852 51.962 59.5212 51.754 59.9012 51.61C60.2812 51.462 60.6812 51.388 61.1012 51.388C61.8092 51.388 62.3612 51.584 62.7572 51.976C63.1572 52.364 63.3572 52.978 63.3572 53.818V58H62.3732V53.854C62.3732 53.29 62.2432 52.884 61.9832 52.636C61.7272 52.388 61.3552 52.264 60.8672 52.264C60.5192 52.264 60.1692 52.334 59.8172 52.474C59.4652 52.614 59.1632 52.828 58.9112 53.116V58H57.9272V51.49ZM67.61 58.114C67.074 58.114 66.6 58 66.188 57.772C65.78 57.544 65.458 57.19 65.222 56.71C64.986 56.226 64.868 55.616 64.868 54.88C64.868 53.724 65.16 52.854 65.744 52.27C66.328 51.682 67.192 51.388 68.336 51.388C68.728 51.388 69.132 51.424 69.548 51.496V48.304H70.532V58H69.698L69.626 57.256H69.566C69.338 57.524 69.056 57.734 68.72 57.886C68.384 58.038 68.014 58.114 67.61 58.114ZM67.838 57.268C68.17 57.268 68.484 57.202 68.78 57.07C69.08 56.934 69.336 56.726 69.548 56.446V52.33C69.38 52.286 69.188 52.252 68.972 52.228C68.756 52.2 68.54 52.186 68.324 52.186C67.492 52.186 66.874 52.396 66.47 52.816C66.07 53.232 65.87 53.89 65.87 54.79C65.87 55.674 66.04 56.308 66.38 56.692C66.724 57.076 67.21 57.268 67.838 57.268ZM77.3383 58.114C76.6183 58.114 75.9683 58.024 75.3883 57.844V57.058C75.7243 57.158 76.0483 57.23 76.3603 57.274C76.6763 57.318 77.0043 57.34 77.3443 57.34C77.9443 57.34 78.3803 57.248 78.6523 57.064C78.9283 56.88 79.0663 56.61 79.0663 56.254C79.0663 55.962 78.9863 55.74 78.8263 55.588C78.6703 55.432 78.3943 55.318 77.9983 55.246L77.0023 55.06C76.3943 54.944 75.9523 54.742 75.6763 54.454C75.4043 54.162 75.2683 53.772 75.2683 53.284C75.2683 52.908 75.3663 52.578 75.5623 52.294C75.7583 52.01 76.0583 51.788 76.4623 51.628C76.8663 51.468 77.3743 51.388 77.9863 51.388C78.5863 51.388 79.1403 51.46 79.6483 51.604V52.39C79.3683 52.31 79.0963 52.252 78.8323 52.216C78.5683 52.18 78.2923 52.162 78.0043 52.162C77.3683 52.162 76.9103 52.262 76.6303 52.462C76.3543 52.658 76.2163 52.924 76.2163 53.26C76.2163 53.524 76.2923 53.738 76.4443 53.902C76.6003 54.066 76.8683 54.186 77.2483 54.262L78.2383 54.442C78.8583 54.558 79.3083 54.756 79.5883 55.036C79.8723 55.312 80.0143 55.698 80.0143 56.194C80.0143 56.798 79.7863 57.27 79.3303 57.61C78.8783 57.946 78.2143 58.114 77.3383 58.114ZM84.2207 57.268C84.4487 57.268 84.7387 57.232 85.0907 57.16V57.988C84.7187 58.072 84.3567 58.114 84.0047 58.114C83.2727 58.114 82.7147 57.93 82.3307 57.562C81.9467 57.19 81.7547 56.624 81.7547 55.864V52.3H80.4707V51.49H81.7547L81.9227 49.12H82.7387V51.49H84.9887V52.3H82.7387V55.702C82.7387 56.262 82.8607 56.664 83.1047 56.908C83.3487 57.148 83.7207 57.268 84.2207 57.268ZM88.6851 58.114C87.7611 58.114 87.0391 57.836 86.5191 57.28C85.9991 56.724 85.7391 55.88 85.7391 54.748C85.7391 53.624 85.9991 52.784 86.5191 52.228C87.0391 51.668 87.7611 51.388 88.6851 51.388C89.6171 51.388 90.3391 51.666 90.8511 52.222C91.3671 52.774 91.6251 53.616 91.6251 54.748C91.6251 55.5 91.5051 56.128 91.2651 56.632C91.0251 57.132 90.6851 57.504 90.2451 57.748C89.8051 57.992 89.2851 58.114 88.6851 58.114ZM88.6851 57.316C89.3091 57.316 89.7871 57.116 90.1191 56.716C90.4551 56.316 90.6231 55.664 90.6231 54.76C90.6231 53.844 90.4571 53.186 90.1251 52.786C89.7931 52.386 89.3131 52.186 88.6851 52.186C88.0571 52.186 87.5751 52.386 87.2391 52.786C86.9071 53.182 86.7411 53.832 86.7411 54.736C86.7411 55.652 86.9071 56.312 87.2391 56.716C87.5751 57.116 88.0571 57.316 88.6851 57.316ZM93.2241 51.49H94.0461L94.1301 52.36H94.1901C94.4221 52.064 94.7201 51.834 95.0841 51.67C95.4521 51.506 95.8341 51.424 96.2301 51.424C96.4341 51.424 96.6341 51.442 96.8301 51.478V52.39C96.6501 52.358 96.4341 52.342 96.1821 52.342C95.8301 52.342 95.4701 52.418 95.1021 52.57C94.7381 52.722 94.4401 52.944 94.2081 53.236V58H93.2241V51.49ZM102.832 51.49H103.816L100.114 60.64H99.13L100.204 58H99.928L97.294 51.49H98.344L100.564 57.208L102.832 51.49Z" fill="#C8A378"/>
<path d="M51.288 67.912H54.504V80.728H51.288V67.912ZM53.568 73.168H57.408V75.76H53.568V73.168ZM47.208 81.136C51.768 81.136 54.72 82.84 54.72 85.648C54.72 88.48 51.768 90.16 47.208 90.16C42.624 90.16 39.672 88.48 39.672 85.648C39.672 82.84 42.624 81.136 47.208 81.136ZM47.208 83.68C44.376 83.68 42.816 84.304 42.816 85.648C42.816 86.968 44.376 87.616 47.208 87.616C50.016 87.616 51.576 86.968 51.576 85.648C51.576 84.304 50.016 83.68 47.208 83.68ZM37.728 77.032H39.576C44.472 77.032 46.896 76.912 49.56 76.336L49.872 78.88C47.16 79.48 44.592 79.576 39.576 79.576H37.728V77.032ZM37.728 69.4H47.664V71.944H40.896V78.76H37.728V69.4ZM74.3021 67.936H77.5181V84.136H74.3021V67.936ZM62.7101 87.208H78.0701V89.752H62.7101V87.208ZM62.7101 82.576H65.9021V88.528H62.7101V82.576ZM64.2461 69.136H66.8861V71.296C66.8861 75.64 64.8941 79.648 60.5741 81.16L58.9661 78.616C62.6861 77.344 64.2461 74.248 64.2461 71.296V69.136ZM64.8941 69.136H67.5101V71.296C67.5101 74.2 69.0221 77.056 72.6701 78.232L71.0381 80.776C66.8381 79.36 64.8941 75.592 64.8941 71.296V69.136ZM88.2683 69.376C91.7723 69.376 94.3883 71.656 94.3883 74.848C94.3883 78.064 91.7723 80.344 88.2683 80.344C84.7883 80.344 82.1243 78.064 82.1243 74.848C82.1243 71.656 84.7883 69.376 88.2683 69.376ZM88.2683 72.112C86.5643 72.112 85.2683 73.12 85.2683 74.848C85.2683 76.6 86.5643 77.608 88.2683 77.608C89.9723 77.608 91.2683 76.6 91.2683 74.848C91.2683 73.12 89.9723 72.112 88.2683 72.112ZM96.4763 67.888H99.6683V90.184H96.4763V67.888ZM81.5963 85.672L81.2123 83.104C85.1243 83.104 90.5723 83.056 95.2523 82.36L95.4923 84.664C90.6683 85.624 85.4363 85.672 81.5963 85.672ZM125.118 67.912H128.31V84.64H125.118V67.912ZM122.286 75.376H126.39V77.968H122.286V75.376ZM109.782 70.24H122.766V72.736H109.782V70.24ZM116.286 73.528C119.358 73.528 121.59 75.304 121.59 77.824C121.59 80.344 119.358 82.096 116.286 82.096C113.19 82.096 110.958 80.344 110.958 77.824C110.958 75.304 113.19 73.528 116.286 73.528ZM116.286 75.952C114.942 75.952 114.006 76.624 114.006 77.824C114.006 79.024 114.942 79.672 116.286 79.672C117.606 79.672 118.542 79.024 118.542 77.824C118.542 76.624 117.606 75.952 116.286 75.952ZM114.678 67.864H117.87V71.776H114.678V67.864ZM113.598 87.208H128.79V89.752H113.598V87.208ZM113.598 83.272H116.814V88.192H113.598V83.272ZM131.788 78.472H151.876V80.968H131.788V78.472ZM140.212 82.048H142.948V82.456C142.948 86.344 139.876 89.296 134.308 90.064L133.108 87.616C138.028 87.016 140.212 84.76 140.212 82.456V82.048ZM140.716 82.048H143.452V82.456C143.452 84.76 145.612 87.016 150.532 87.616L149.332 90.064C143.764 89.296 140.716 86.344 140.716 82.456V82.048ZM140.212 76.072H143.38V79.336H140.212V76.072ZM141.844 68.272C146.74 68.272 149.884 69.904 149.884 72.592C149.884 75.28 146.74 76.936 141.844 76.936C136.948 76.936 133.804 75.28 133.804 72.592C133.804 69.904 136.948 68.272 141.844 68.272ZM141.844 70.72C138.796 70.72 137.092 71.344 137.092 72.592C137.092 73.864 138.796 74.464 141.844 74.464C144.868 74.464 146.596 73.864 146.596 72.592C146.596 71.344 144.868 70.72 141.844 70.72ZM169.106 67.888H172.322V90.184H169.106V67.888ZM160.346 69.448C163.706 69.448 166.178 72.52 166.178 77.368C166.178 82.264 163.706 85.336 160.346 85.336C156.986 85.336 154.514 82.264 154.514 77.368C154.514 72.52 156.986 69.448 160.346 69.448ZM160.346 72.352C158.69 72.352 157.562 74.104 157.562 77.368C157.562 80.68 158.69 82.456 160.346 82.456C162.002 82.456 163.106 80.68 163.106 77.368C163.106 74.104 162.002 72.352 160.346 72.352ZM51.264 107.936H54.456V124.28H51.264V107.936ZM53.544 114.176H57.408V116.792H53.544V114.176ZM40.128 127.208H55.248V129.752H40.128V127.208ZM40.128 122.624H43.32V127.76H40.128V122.624ZM37.608 109.496H40.776V112.688H45.12V109.496H48.288V120.776H37.608V109.496ZM40.776 115.112V118.28H45.12V115.112H40.776ZM74.4461 107.888H77.6381V130.184H74.4461V107.888ZM70.7981 112.616H74.9741V115.184H70.7981V112.616ZM59.8061 122.624H61.5581C64.8461 122.624 67.5821 122.552 70.7741 122.072L71.0381 124.664C67.7741 125.168 64.9421 125.24 61.5581 125.24H59.8061V122.624ZM59.7581 109.76H69.6941V118.376H62.9741V123.2H59.8061V115.856H66.5501V112.304H59.7581V109.76ZM70.7501 118.664H74.9261V121.232H70.7501V118.664ZM96.5243 107.912H99.7163V124.28H96.5243V107.912ZM89.6123 109.568H92.9963C92.9963 115.592 89.1803 119.984 82.7243 121.976L81.4043 119.456C86.5643 117.824 89.6123 114.776 89.6123 111.056V109.568ZM82.5803 109.568H91.6043V112.136H82.5803V109.568ZM91.7723 112.16H96.9803V114.728H91.7723V112.16ZM91.5563 117.176H96.8123V119.72H91.5563V117.176ZM85.1483 127.208H100.268V129.752H85.1483V127.208ZM85.1483 122.696H88.3643V128.84H85.1483V122.696ZM113.25 108.224C118.314 108.224 121.29 109.568 121.29 112.016C121.29 114.464 118.314 115.808 113.25 115.808C108.162 115.808 105.21 114.464 105.21 112.016C105.21 109.568 108.162 108.224 113.25 108.224ZM113.25 110.552C110.034 110.552 108.522 111.032 108.522 112.016C108.522 113.048 110.034 113.48 113.25 113.48C116.466 113.48 117.978 113.048 117.978 112.016C117.978 111.032 116.466 110.552 113.25 110.552ZM103.194 116.84H123.282V119.36H103.194V116.84ZM105.498 120.608H120.858V126.32H108.666V128.288H105.522V124.112H117.714V122.984H105.498V120.608ZM105.522 127.592H121.434V129.992H105.522V127.592ZM138.988 108.8C142.372 108.8 144.82 110.744 144.82 113.552C144.82 116.312 142.372 118.304 138.988 118.304C135.628 118.304 133.18 116.312 133.18 113.552C133.18 110.744 135.628 108.8 138.988 108.8ZM138.988 111.392C137.38 111.392 136.228 112.16 136.228 113.552C136.228 114.92 137.38 115.688 138.988 115.688C140.62 115.688 141.772 114.92 141.772 113.552C141.772 112.16 140.62 111.392 138.988 111.392ZM137.5 120.512H140.692V129.464H137.5V120.512ZM147.22 107.912H150.388V130.136H147.22V107.912ZM132.244 122.192L131.86 119.6C135.748 119.6 141.244 119.552 145.948 118.832L146.164 121.16C141.34 122.12 136.084 122.168 132.244 122.192ZM153.842 111.248H164.474V113.792H153.842V111.248ZM159.194 114.776C162.026 114.776 164.066 116.96 164.066 120.08C164.066 123.176 162.026 125.36 159.194 125.36C156.386 125.36 154.322 123.176 154.322 120.08C154.322 116.96 156.386 114.776 159.194 114.776ZM159.194 117.44C157.994 117.44 157.154 118.4 157.154 120.08C157.154 121.76 157.994 122.696 159.194 122.696C160.394 122.696 161.258 121.76 161.258 120.08C161.258 118.4 160.394 117.44 159.194 117.44ZM169.922 107.912H172.97V130.136H169.922V107.912ZM167.258 116.936H170.93V119.504H167.258V116.936ZM165.266 108.32H168.242V129.2H165.266V108.32ZM157.634 108.512H160.778V112.856H157.634V108.512ZM250.206 116.912H261.822V119.456H250.206V116.912ZM254.382 118.976H257.598V123.656H254.382V118.976ZM250.206 109.88H261.678V112.4H253.398V117.704H250.206V109.88ZM264.054 107.888H267.246V130.184H264.054V107.888ZM249.174 125.792L248.79 123.224C253.038 123.224 258.27 123.2 262.83 122.696L263.07 125.024C258.27 125.768 253.302 125.816 249.174 125.792ZM273.269 113.912H288.677V116.432H273.269V113.912ZM270.773 118.736H290.909V121.28H270.773V118.736ZM273.269 108.704H276.437V115.16H273.269V108.704ZM273.053 127.112H288.797V129.656H273.053V127.112ZM273.053 123.056H276.245V127.784H273.053V123.056Z" fill="white"/>
<path d="M198.684 107.912H201.708V130.136H198.684V107.912ZM196.02 116.432H199.716V119.024H196.02V116.432ZM193.908 108.248H196.884V129.128H193.908V108.248ZM186.42 111.368H188.844V113.336C188.844 118.832 187.644 123.68 183.948 125.912L182.028 123.464C185.364 121.544 186.42 117.608 186.42 113.336V111.368ZM187.068 111.368H189.516V113.336C189.516 117.248 190.644 120.944 193.956 122.672L192.132 125.096C188.388 123.08 187.068 118.496 187.068 113.336V111.368ZM182.748 110.168H192.852V112.736H182.748V110.168ZM205.354 118.904H207.202C211.57 118.904 214.09 118.808 216.97 118.304L217.306 120.776C214.354 121.328 211.666 121.424 207.202 121.424H205.354V118.904ZM205.354 109.616H215.794V112.136H208.546V119.768H205.354V109.616ZM207.562 114.224H215.314V116.696H207.562V114.224ZM218.842 107.912H222.034V124.376H218.842V107.912ZM221.122 114.488H224.986V117.08H221.122V114.488ZM207.706 127.208H222.826V129.752H207.706V127.208ZM207.706 122.888H210.898V128.816H207.706V122.888ZM230.624 109.256H233.12V111.824C233.12 115.592 231.608 119.36 227.984 120.896L226.304 118.424C229.4 117.056 230.624 114.32 230.624 111.824V109.256ZM231.2 109.256H233.696V111.824C233.696 114.2 234.896 116.6 237.824 117.752L236.12 120.176C232.664 118.808 231.2 115.448 231.2 111.824V109.256ZM242.528 107.936H245.552V121.496H242.528V107.936ZM239.864 113.312H243.392V115.88H239.864V113.312ZM237.824 108.344H240.8V120.8H237.824V108.344ZM238.016 121.808C242.672 121.808 245.672 123.368 245.672 125.984C245.672 128.576 242.672 130.136 238.016 130.136C233.336 130.136 230.384 128.576 230.384 125.984C230.384 123.368 233.336 121.808 238.016 121.808ZM238.016 124.208C235.16 124.208 233.552 124.808 233.552 125.984C233.552 127.16 235.16 127.736 238.016 127.736C240.872 127.736 242.456 127.16 242.456 125.984C242.456 124.808 240.872 124.208 238.016 124.208Z" fill="#C8A378"/>
<path d="M54.272 163.912H57.488V186.136H54.272V163.912ZM39.512 165.952H51.992V168.496H39.512V165.952ZM39.224 181.072L38.912 178.456C42.92 178.456 48.272 178.384 52.856 177.832L53.024 180.16C48.344 180.952 43.232 181.048 39.224 181.072ZM41.432 167.944H44.528V179.152H41.432V167.944ZM46.976 167.944H50.072V179.152H46.976V167.944ZM76.5181 163.888H79.6861V186.184H76.5181V163.888ZM72.7021 171.712H76.8781V174.304H72.7021V171.712ZM62.0461 178.576H63.8221C67.4941 178.576 70.2301 178.528 73.3741 178.024L73.6621 180.568C70.4461 181.072 67.5661 181.168 63.8221 181.168H62.0461V178.576ZM62.0461 165.76H72.3421V168.352H65.2141V179.392H62.0461V165.76ZM64.4941 171.952H71.5741V174.448H64.4941V171.952ZM99.1483 163.912H102.172V179.128H99.1483V163.912ZM92.9083 169.744H96.3163V172.288H92.9083V169.744ZM94.9483 164.344H97.9243V177.088H94.9483V164.344ZM83.3083 165.568H93.4843V168.136H83.3083V165.568ZM83.2603 176.704L82.9482 174.136C85.8523 174.136 90.4843 174.112 93.8203 173.68L93.9643 176.008C90.5563 176.656 86.1163 176.704 83.2603 176.704ZM84.6763 167.368H87.5563V174.76H84.6763V167.368ZM89.1883 167.368H92.0443V174.76H89.1883V167.368ZM92.9083 178H95.6203V178.552C95.6203 182.32 92.5243 185.32 86.9323 186.064L85.8043 183.592C90.6523 183.04 92.9083 180.76 92.9083 178.552V178ZM93.3643 178H96.0763V178.552C96.0763 180.76 98.3563 183.04 103.18 183.592L102.052 186.064C96.4843 185.32 93.3643 182.32 93.3643 178.552V178Z" fill="white"/>
<defs>
<linearGradient id="paint0_linear_155_687" x1="224" y1="232" x2="415.5" y2="165.5" gradientUnits="userSpaceOnUse">
<stop offset="0.280185" stop-color="#2E2E39"/>
<stop offset="0.749109" stop-color="#846F5C"/>
<stop offset="1" stop-color="#C8A378"/>
</linearGradient>
</defs>
</svg>
