<svg width="15" height="17" viewBox="0 0 15 17" fill="none" xmlns="http://www.w3.org/2000/svg">
<path d="M14.5047 15.1663L2.90645 8.52305L14.5047 1.87983C14.7157 1.73866 14.8649 1.52327 14.922 1.2772C14.9791 1.03112 14.9399 0.772719 14.8123 0.554206C14.6848 0.335693 14.4783 0.173377 14.2348 0.100059C13.9912 0.0267419 13.7287 0.0478902 13.5002 0.159238L0.502431 7.59963C0.350512 7.70194 0.226141 7.83958 0.140179 8.00054C0.0542174 8.1615 0.00927734 8.34089 0.00927734 8.52305C0.00927734 8.7052 0.0542174 8.8846 0.140179 9.04556C0.226141 9.20652 0.350512 9.34416 0.502431 9.44647L13.5002 16.8869C13.65 16.9754 13.8214 17.0213 13.9957 17.0197C14.2176 17.0215 14.4339 16.9502 14.6107 16.8172C14.7875 16.6841 14.9149 16.4968 14.973 16.2843C15.0311 16.0719 15.0167 15.8463 14.932 15.6428C14.8472 15.4394 14.697 15.2694 14.5047 15.1596V15.1663Z" fill="#231815"/>
</svg>
