<svg width="387" height="577" viewBox="0 0 387 577" fill="none" xmlns="http://www.w3.org/2000/svg">
<path d="M22.488 17.408H24.35V19.382H22.488V17.408ZM17.56 16.344H29.278V17.814H17.56V16.344ZM18.582 10.632H28.242V12.116H18.582V10.632ZM18.68 14.062H28.144V15.546H18.68V14.062ZM20.234 11.178H22.096V15.028H20.234V11.178ZM24.728 11.178H26.59V15.028H24.728V11.178ZM18.918 18.892H27.878V23.106H18.918V18.892ZM26.058 20.334H20.752V21.636H26.058V20.334ZM31.8809 10.786H40.6869V15.378H31.8809V10.786ZM38.8529 12.242H33.7009V13.922H38.8529V12.242ZM30.4389 16.596H42.1569V18.066H30.4389V16.596ZM35.3529 15.042H37.2149V17.016H35.3529V15.042ZM31.7409 19.004H40.7429V23.246H38.8809V20.474H31.7409V19.004Z" fill="#A2A2A2"/>
<path d="M24.04 115.03H27.28V116.635H24.04V115.03ZM26.23 111.46H28.225V121.585H26.23V111.46ZM19.06 123.505H28.54V125.095H19.06V123.505ZM19.06 120.73H21.055V124.45H19.06V120.73ZM19.81 113.275H21.43V114.145C21.43 116.755 20.2 119.17 17.53 120.055L16.525 118.465C18.82 117.715 19.81 115.9 19.81 114.145V113.275ZM20.23 113.275H21.835V114.145C21.835 115.765 22.78 117.49 24.97 118.225L23.995 119.785C21.415 118.93 20.23 116.62 20.23 114.145V113.275ZM17.065 112.39H24.535V113.965H17.065V112.39ZM36.0538 116.71H38.2588V118.315H36.0538V116.71ZM32.8288 115.3H34.3288V115.66C34.3288 118.555 33.4888 121.45 31.2688 122.725L30.1438 121.225C32.1238 120.07 32.8288 117.79 32.8288 115.66V115.3ZM33.2188 115.3H34.7188V115.66C34.7188 117.76 35.4388 119.875 37.4038 120.925L36.3238 122.395C34.0738 121.225 33.2188 118.51 33.2188 115.66V115.3ZM30.6688 113.77H36.8638V115.375H30.6688V113.77ZM32.8288 111.91H34.7188V115.075H32.8288V111.91ZM40.4338 111.445H42.3238V125.335H40.4338V111.445ZM37.6288 111.67H39.4888V124.705H37.6288V111.67ZM51.3167 112.51H52.9367V114.535C52.9367 117.97 51.7367 121.195 49.1117 122.485L47.9117 120.88C50.2517 119.785 51.3167 117.115 51.3167 114.535V112.51ZM51.7217 112.51H53.3117V114.535C53.3117 117.025 54.3017 119.56 56.5217 120.64L55.3217 122.23C52.8167 120.955 51.7217 117.865 51.7217 114.535V112.51ZM57.0767 111.445H59.0867V125.335H57.0767V111.445ZM58.6367 116.785H61.0967V118.45H58.6367V116.785ZM65.3705 112.99H67.0205V114.16C67.0205 116.785 65.7455 119.155 63.0755 120.025L62.0555 118.465C64.3655 117.715 65.3705 115.915 65.3705 114.16V112.99ZM65.7755 112.99H67.4105V114.16C67.4105 115.81 68.4005 117.505 70.6655 118.225L69.6455 119.77C67.0355 118.945 65.7755 116.68 65.7755 114.16V112.99ZM62.5805 112.435H70.1405V114.01H62.5805V112.435ZM71.5355 111.46H73.5455V121.48H71.5355V111.46ZM64.2905 123.505H73.8905V125.095H64.2905V123.505ZM64.2905 120.58H66.2855V124.3H64.2905V120.58Z" fill="#A2A2A2"/>
<path d="M87.3021 243.236L94.2616 247.668L87.3021 252.099C87.1754 252.193 87.0859 252.337 87.0517 252.501C87.0174 252.665 87.0409 252.838 87.1174 252.983C87.194 253.129 87.3179 253.237 87.464 253.286C87.6102 253.335 87.7677 253.321 87.9048 253.247L95.7041 248.284C95.7952 248.215 95.8699 248.124 95.9215 248.016C95.973 247.909 96 247.789 96 247.668C96 247.546 95.973 247.426 95.9215 247.319C95.8699 247.212 95.7952 247.12 95.7041 247.052L87.9048 242.088C87.8149 242.029 87.7121 241.999 87.6074 242C87.4743 241.999 87.3445 242.046 87.2385 242.135C87.1324 242.224 87.0559 242.349 87.021 242.49C86.9862 242.632 86.9948 242.783 87.0457 242.918C87.0965 243.054 87.1867 243.167 87.3021 243.241L87.3021 243.236Z" fill="#231815"/>
<path d="M20.645 241.195H22.28V242.425C22.28 245.185 21.08 247.615 18.44 248.53L17.375 246.955C19.7 246.175 20.645 244.315 20.645 242.425V241.195ZM21.05 241.195H22.67V242.62C22.67 244.285 23.6 245.905 25.775 246.58L24.74 248.125C22.235 247.285 21.05 245.125 21.05 242.62V241.195ZM26.54 240.445H28.535V248.65H26.54V240.445ZM27.98 243.655H30.38V245.305H27.98V243.655ZM24.005 248.965C26.885 248.965 28.7 249.97 28.7 251.65C28.7 253.345 26.885 254.335 24.005 254.335C21.11 254.335 19.295 253.345 19.295 251.65C19.295 249.97 21.11 248.965 24.005 248.965ZM24.005 250.51C22.235 250.51 21.275 250.885 21.275 251.65C21.275 252.43 22.235 252.79 24.005 252.79C25.775 252.79 26.72 252.43 26.72 251.65C26.72 250.885 25.775 250.51 24.005 250.51ZM36.8738 245.11H39.1688V246.73H36.8738V245.11ZM33.9038 241.645H35.4338V243.985C35.4338 247.135 34.5638 250.21 32.3438 251.575L31.1438 250.075C33.1838 248.815 33.9038 246.34 33.9038 243.985V241.645ZM34.3388 241.645H35.8388V243.895C35.8388 246.16 36.4238 248.47 38.3138 249.7L37.2338 251.26C35.0288 249.895 34.3388 246.895 34.3388 243.895V241.645ZM41.4338 240.445H43.3388V254.335H41.4338V240.445ZM38.6138 240.655H40.4738V253.705H38.6138V240.655ZM52.3167 241.51H53.9367V243.535C53.9367 246.97 52.7367 250.195 50.1117 251.485L48.9117 249.88C51.2517 248.785 52.3167 246.115 52.3167 243.535V241.51ZM52.7217 241.51H54.3117V243.535C54.3117 246.025 55.3017 248.56 57.5217 249.64L56.3217 251.23C53.8167 249.955 52.7217 246.865 52.7217 243.535V241.51ZM58.0767 240.445H60.0867V254.335H58.0767V240.445ZM59.6367 245.785H62.0967V247.45H59.6367V245.785ZM66.3705 241.99H68.0205V243.16C68.0205 245.785 66.7455 248.155 64.0755 249.025L63.0555 247.465C65.3655 246.715 66.3705 244.915 66.3705 243.16V241.99ZM66.7755 241.99H68.4105V243.16C68.4105 244.81 69.4005 246.505 71.6655 247.225L70.6455 248.77C68.0355 247.945 66.7755 245.68 66.7755 243.16V241.99ZM63.5805 241.435H71.1405V243.01H63.5805V241.435ZM72.5355 240.46H74.5455V250.48H72.5355V240.46ZM65.2905 252.505H74.8905V254.095H65.2905V252.505ZM65.2905 249.58H67.2855V253.3H65.2905V249.58Z" fill="#A2A2A2"/>
<path d="M128.369 392.236L136.875 396.668L128.369 401.099C128.214 401.193 128.105 401.337 128.063 401.501C128.021 401.665 128.05 401.838 128.144 401.983C128.237 402.129 128.388 402.237 128.567 402.286C128.746 402.335 128.938 402.321 129.106 402.247L138.638 397.284C138.75 397.215 138.841 397.124 138.904 397.016C138.967 396.909 139 396.789 139 396.668C139 396.546 138.967 396.426 138.904 396.319C138.841 396.212 138.75 396.12 138.638 396.052L129.106 391.088C128.996 391.029 128.87 390.999 128.742 391C128.58 390.999 128.421 391.046 128.291 391.135C128.162 391.224 128.068 391.349 128.026 391.49C127.983 391.632 127.994 391.783 128.056 391.918C128.118 392.054 128.228 392.167 128.369 392.241L128.369 392.236Z" fill="#231815"/>
<path d="M27.125 389.445H29.135V403.38H27.125V389.445ZM18.44 398.4H19.64C22.565 398.4 24.215 398.34 26.075 397.995L26.255 399.63C24.38 400.005 22.625 400.065 19.64 400.065H18.44V398.4ZM18.44 390.675H25.145V392.28H20.42V399.03H18.44V390.675ZM34.5188 391.635H36.0938V393.195C36.0938 396.33 34.7738 399.525 32.2238 400.725L31.0988 399.15C33.3938 398.07 34.5188 395.475 34.5188 393.195V391.635ZM34.9388 391.635H36.5138V393.195C36.5138 395.295 37.5938 397.755 39.8738 398.805L38.7788 400.38C36.2288 399.195 34.9388 396.15 34.9388 393.195V391.635ZM31.6388 390.78H39.2588V392.415H31.6388V390.78ZM40.2788 389.445H42.2888V403.335H40.2788V389.445ZM41.8388 394.74H44.2988V396.39H41.8388V394.74ZM54.7377 389.46H56.7477V399.435H54.7377V389.46ZM47.4927 401.505H57.0927V403.095H47.4927V401.505ZM47.4927 398.43H49.4877V402.15H47.4927V398.43ZM49.1877 390.33C51.3177 390.33 52.9527 391.8 52.9527 393.855C52.9527 395.895 51.3177 397.38 49.1877 397.38C47.0577 397.38 45.4077 395.895 45.4077 393.855C45.4077 391.8 47.0577 390.33 49.1877 390.33ZM49.1877 392.055C48.1527 392.055 47.3577 392.715 47.3577 393.855C47.3577 394.98 48.1527 395.64 49.1877 395.64C50.2077 395.64 51.0027 394.98 51.0027 393.855C51.0027 392.715 50.2077 392.055 49.1877 392.055ZM62.9805 396.66H75.5505V398.235H62.9805V396.66ZM64.3905 399.12H74.0205V403.335H72.0255V400.695H64.3905V399.12ZM64.5405 394.305H74.2155V395.82H64.5405V394.305ZM64.5405 389.76H74.1105V391.275H66.5205V395.07H64.5405V389.76ZM65.9655 392.04H73.7955V393.495H65.9655V392.04ZM86.3193 389.43H88.3293V403.365H86.3193V389.43ZM80.8443 390.405C82.9443 390.405 84.4893 392.325 84.4893 395.355C84.4893 398.415 82.9443 400.335 80.8443 400.335C78.7443 400.335 77.1993 398.415 77.1993 395.355C77.1993 392.325 78.7443 390.405 80.8443 390.405ZM80.8443 392.22C79.8093 392.22 79.1043 393.315 79.1043 395.355C79.1043 397.425 79.8093 398.535 80.8443 398.535C81.8793 398.535 82.5693 397.425 82.5693 395.355C82.5693 393.315 81.8793 392.22 80.8443 392.22ZM93.7132 390.51H95.3332V392.535C95.3332 395.97 94.1332 399.195 91.5082 400.485L90.3082 398.88C92.6482 397.785 93.7132 395.115 93.7132 392.535V390.51ZM94.1182 390.51H95.7082V392.535C95.7082 395.025 96.6982 397.56 98.9182 398.64L97.7182 400.23C95.2132 398.955 94.1182 395.865 94.1182 392.535V390.51ZM99.4732 389.445H101.483V403.335H99.4732V389.445ZM101.033 394.785H103.493V396.45H101.033V394.785ZM113.332 389.445H115.327V398.25H113.332V389.445ZM114.772 392.985H117.172V394.62H114.772V392.985ZM110.812 398.4C113.677 398.4 115.477 399.315 115.477 400.875C115.477 402.42 113.677 403.335 110.812 403.335C107.947 403.335 106.147 402.42 106.147 400.875C106.147 399.315 107.947 398.4 110.812 398.4ZM110.812 399.9C109.057 399.9 108.127 400.215 108.127 400.875C108.127 401.535 109.057 401.85 110.812 401.85C112.567 401.85 113.497 401.535 113.497 400.875C113.497 400.215 112.567 399.9 110.812 399.9ZM104.392 390.765H112.567V392.31H104.392V390.765ZM108.487 392.775C110.497 392.775 111.892 393.78 111.892 395.265C111.892 396.765 110.497 397.755 108.487 397.755C106.462 397.755 105.067 396.765 105.067 395.265C105.067 393.78 106.462 392.775 108.487 392.775ZM108.487 394.23C107.587 394.23 106.987 394.59 106.987 395.265C106.987 395.94 107.587 396.3 108.487 396.3C109.372 396.3 109.987 395.94 109.987 395.265C109.987 394.59 109.372 394.23 108.487 394.23ZM107.482 389.355H109.477V391.59H107.482V389.355Z" fill="#A2A2A2"/>
<rect x="17.5" y="137.5" width="78" height="78" stroke="#A2A2A2"/>
<rect x="17.5" y="267.5" width="78" height="78" stroke="#A2A2A2"/>
<rect x="110.5" y="137.5" width="78" height="78" stroke="#A2A2A2"/>
<rect x="110.5" y="267.5" width="78" height="78" stroke="#A2A2A2"/>
<rect x="203.5" y="137.5" width="78" height="78" stroke="#A2A2A2"/>
<rect x="203.5" y="267.5" width="78" height="78" stroke="#A2A2A2"/>
<rect x="296.5" y="267.5" width="78" height="78" stroke="#A2A2A2"/>
<line y1="88.5" x2="390" y2="88.5" stroke="#D9D9D9"/>
<rect x="16" y="431" width="73" height="33" rx="16.5" fill="#D9D9D9"/>
<path d="M39.944 442.832H40.808V443.66C40.808 446.024 38.612 447.86 36.44 448.352L35.996 447.524C37.904 447.164 39.944 445.508 39.944 443.66V442.832ZM40.124 442.832H40.988V443.66C40.988 445.52 43.04 447.164 44.936 447.524L44.492 448.352C42.332 447.86 40.124 446.036 40.124 443.66V442.832ZM35.6 450.656H45.428V451.472H35.6V450.656ZM47.3231 449.504H48.1871C50.2151 449.504 51.6311 449.444 53.2991 449.168L53.3951 449.972C51.6911 450.272 50.2511 450.332 48.1871 450.332H47.3231V449.504ZM47.3231 443.072H52.5791V443.9H48.3071V449.792H47.3231V443.072ZM48.0671 446.108H52.1831V446.912H48.0671V446.108ZM54.5351 442.088H55.5311V452.936H54.5351V442.088ZM65.5621 442.088H66.5581V452.936H65.5621V442.088ZM60.6781 444.668H61.4821V445.592C61.4821 447.908 60.1741 450.008 58.4341 450.848L57.8701 450.08C59.4781 449.336 60.6781 447.488 60.6781 445.592V444.668ZM60.8701 444.668H61.6621V445.592C61.6621 447.404 62.8981 449.168 64.5181 449.876L63.9541 450.656C62.2021 449.864 60.8701 447.836 60.8701 445.592V444.668ZM58.1701 443.972H64.1461V444.776H58.1701V443.972ZM60.6781 442.28H61.6741V444.416H60.6781V442.28Z" fill="#565656"/>
<path d="M16.5 489C16.5 485.41 19.4101 482.5 23 482.5H358C361.59 482.5 364.5 485.41 364.5 489V570C364.5 573.59 361.59 576.5 358 576.5H23C19.4102 576.5 16.5 573.59 16.5 570V489Z" stroke="#A2A2A2"/>
<path d="M24.364 58.425V60H17.406V58.978L20.535 55.275C21.0297 54.6917 21.3773 54.1993 21.578 53.798C21.7787 53.3967 21.879 53.0093 21.879 52.636C21.879 52.09 21.711 51.691 21.375 51.439C21.039 51.1823 20.5023 51.054 19.765 51.054C19.3263 51.054 18.8923 51.0937 18.463 51.173C18.0337 51.2477 17.6393 51.3527 17.28 51.488V49.913C17.616 49.7963 18.0267 49.7007 18.512 49.626C18.9973 49.5467 19.4687 49.507 19.926 49.507C21.2233 49.507 22.1917 49.745 22.831 50.221C23.475 50.697 23.797 51.432 23.797 52.426C23.797 52.9907 23.6757 53.5413 23.433 54.078C23.1903 54.61 22.768 55.2213 22.166 55.912L20.003 58.425H24.364ZM29.5623 60.133C28.2603 60.133 27.2523 59.699 26.5383 58.831C25.8243 57.963 25.4673 56.626 25.4673 54.82C25.4673 53.014 25.8219 51.677 26.5313 50.809C27.2453 49.941 28.2556 49.507 29.5623 49.507C30.8689 49.507 31.8793 49.941 32.5933 50.809C33.3073 51.677 33.6643 53.014 33.6643 54.82C33.6643 56.626 33.3049 57.963 32.5863 58.831C31.8723 59.699 30.8643 60.133 29.5623 60.133ZM29.5693 58.537C30.0406 58.537 30.4349 58.4227 30.7523 58.194C31.0743 57.9607 31.3216 57.5733 31.4943 57.032C31.6669 56.486 31.7533 55.7533 31.7533 54.834C31.7533 53.9053 31.6669 53.168 31.4943 52.622C31.3216 52.0713 31.0743 51.6817 30.7523 51.453C30.4349 51.2197 30.0406 51.103 29.5693 51.103C29.0979 51.103 28.7013 51.2197 28.3793 51.453C28.0619 51.6817 27.8146 52.069 27.6373 52.615C27.4646 53.1563 27.3783 53.8867 27.3783 54.806C27.3783 55.7347 27.4646 56.4743 27.6373 57.025C27.8099 57.571 28.0549 57.9607 28.3723 58.194C28.6943 58.4227 29.0933 58.537 29.5693 58.537ZM41.7546 58.425V60H34.7966V58.978L37.9256 55.275C38.4203 54.6917 38.768 54.1993 38.9686 53.798C39.1693 53.3967 39.2696 53.0093 39.2696 52.636C39.2696 52.09 39.1016 51.691 38.7656 51.439C38.4296 51.1823 37.893 51.054 37.1556 51.054C36.717 51.054 36.283 51.0937 35.8536 51.173C35.4243 51.2477 35.03 51.3527 34.6706 51.488V49.913C35.0066 49.7963 35.4173 49.7007 35.9026 49.626C36.388 49.5467 36.8593 49.507 37.3166 49.507C38.614 49.507 39.5823 49.745 40.2216 50.221C40.8656 50.697 41.1876 51.432 41.1876 52.426C41.1876 52.9907 41.0663 53.5413 40.8236 54.078C40.581 54.61 40.1586 55.2213 39.5566 55.912L37.3936 58.425H41.7546ZM47.4193 54.631C48.1239 54.771 48.6629 55.0533 49.0363 55.478C49.4143 55.898 49.6033 56.4463 49.6033 57.123C49.6033 58.0797 49.2533 58.8217 48.5533 59.349C47.8579 59.8717 46.8056 60.133 45.3963 60.133C44.3836 60.133 43.4409 60.0023 42.5683 59.741V58.299C42.9976 58.425 43.4503 58.523 43.9263 58.593C44.4069 58.663 44.8689 58.698 45.3123 58.698C46.1569 58.698 46.7776 58.5557 47.1743 58.271C47.5756 57.9863 47.7763 57.5687 47.7763 57.018C47.7763 56.4907 47.5896 56.0917 47.2163 55.821C46.8429 55.5503 46.2503 55.415 45.4383 55.415H43.8283V53.973H44.9413C45.7719 53.973 46.3856 53.8423 46.7823 53.581C47.1789 53.315 47.3773 52.923 47.3773 52.405C47.3773 51.929 47.2023 51.5673 46.8523 51.32C46.5069 51.068 45.9866 50.942 45.2913 50.942C44.8713 50.942 44.4466 50.977 44.0173 51.047C43.5879 51.1123 43.1819 51.2103 42.7993 51.341V49.899C43.1633 49.7777 43.5856 49.682 44.0663 49.612C44.5469 49.542 45.0136 49.507 45.4663 49.507C46.7029 49.507 47.6409 49.7473 48.2803 50.228C48.9243 50.704 49.2463 51.3807 49.2463 52.258C49.2463 52.8367 49.0829 53.3337 48.7563 53.749C48.4343 54.1597 47.9886 54.4537 47.4193 54.631ZM51.9839 60.105C51.5966 60.105 51.2886 60.0023 51.0599 59.797C50.8359 59.587 50.7239 59.3047 50.7239 58.95C50.7239 58.5953 50.8359 58.3153 51.0599 58.11C51.2839 57.9 51.5919 57.795 51.9839 57.795C52.3713 57.795 52.6769 57.9 52.9009 58.11C53.1249 58.32 53.2369 58.6 53.2369 58.95C53.2369 59.3 53.1226 59.58 52.8939 59.79C52.6699 60 52.3666 60.105 51.9839 60.105ZM62.5115 60.133C61.2095 60.133 60.2015 59.699 59.4875 58.831C58.7735 57.963 58.4165 56.626 58.4165 54.82C58.4165 53.014 58.7712 51.677 59.4805 50.809C60.1945 49.941 61.2048 49.507 62.5115 49.507C63.8182 49.507 64.8285 49.941 65.5425 50.809C66.2565 51.677 66.6135 53.014 66.6135 54.82C66.6135 56.626 66.2542 57.963 65.5355 58.831C64.8215 59.699 63.8135 60.133 62.5115 60.133ZM62.5185 58.537C62.9898 58.537 63.3842 58.4227 63.7015 58.194C64.0235 57.9607 64.2708 57.5733 64.4435 57.032C64.6162 56.486 64.7025 55.7533 64.7025 54.834C64.7025 53.9053 64.6162 53.168 64.4435 52.622C64.2708 52.0713 64.0235 51.6817 63.7015 51.453C63.3842 51.2197 62.9898 51.103 62.5185 51.103C62.0472 51.103 61.6505 51.2197 61.3285 51.453C61.0112 51.6817 60.7638 52.069 60.5865 52.615C60.4138 53.1563 60.3275 53.8867 60.3275 54.806C60.3275 55.7347 60.4138 56.4743 60.5865 57.025C60.7592 57.571 61.0042 57.9607 61.3215 58.194C61.6435 58.4227 62.0425 58.537 62.5185 58.537ZM67.089 49.64H73.991V50.662L70.267 60H68.272L71.898 51.215H67.089V49.64ZM75.4175 60.105C75.0302 60.105 74.7222 60.0023 74.4935 59.797C74.2695 59.587 74.1575 59.3047 74.1575 58.95C74.1575 58.5953 74.2695 58.3153 74.4935 58.11C74.7175 57.9 75.0255 57.795 75.4175 57.795C75.8048 57.795 76.1105 57.9 76.3345 58.11C76.5585 58.32 76.6705 58.6 76.6705 58.95C76.6705 59.3 76.5562 59.58 76.3275 59.79C76.1035 60 75.8002 60.105 75.4175 60.105ZM84.7201 49.605H85.9941V60H84.0551V51.922L81.3111 53.868V52.027L84.7201 49.605ZM92.3861 54.631C93.0907 54.771 93.6297 55.0533 94.0031 55.478C94.3811 55.898 94.5701 56.4463 94.5701 57.123C94.5701 58.0797 94.2201 58.8217 93.5201 59.349C92.8247 59.8717 91.7724 60.133 90.3631 60.133C89.3504 60.133 88.4077 60.0023 87.5351 59.741V58.299C87.9644 58.425 88.4171 58.523 88.8931 58.593C89.3737 58.663 89.8357 58.698 90.2791 58.698C91.1237 58.698 91.7444 58.5557 92.1411 58.271C92.5424 57.9863 92.7431 57.5687 92.7431 57.018C92.7431 56.4907 92.5564 56.0917 92.1831 55.821C91.8097 55.5503 91.2171 55.415 90.4051 55.415H88.7951V53.973H89.9081C90.7387 53.973 91.3524 53.8423 91.7491 53.581C92.1457 53.315 92.3441 52.923 92.3441 52.405C92.3441 51.929 92.1691 51.5673 91.8191 51.32C91.4737 51.068 90.9534 50.942 90.2581 50.942C89.8381 50.942 89.4134 50.977 88.9841 51.047C88.5547 51.1123 88.1487 51.2103 87.7661 51.341V49.899C88.1301 49.7777 88.5524 49.682 89.0331 49.612C89.5137 49.542 89.9804 49.507 90.4331 49.507C91.6697 49.507 92.6077 49.7473 93.2471 50.228C93.8911 50.704 94.2131 51.3807 94.2131 52.258C94.2131 52.8367 94.0497 53.3337 93.7231 53.749C93.4011 54.1597 92.9554 54.4537 92.3861 54.631Z" fill="#A2A2A2"/>
<path d="M109.878 17.324H111.754V19.998H109.878V17.324ZM109.864 12.704H111.348V12.998C111.348 15.168 110.186 17.058 107.722 17.716L106.882 16.288C108.954 15.742 109.864 14.384 109.864 12.998V12.704ZM110.256 12.704H111.754V12.998C111.754 14.328 112.692 15.644 114.75 16.176L113.924 17.604C111.46 16.974 110.256 15.112 110.256 12.998V12.704ZM107.274 11.808H114.372V13.278H107.274V11.808ZM109.878 10.394H111.754V12.452H109.878V10.394ZM115.52 10.268H117.382V23.274H115.52V10.268ZM106.84 20.866L106.616 19.354C108.884 19.354 112.076 19.326 114.806 18.92L114.946 20.278C112.132 20.824 109.08 20.852 106.84 20.866ZM128.455 10.268H130.317V23.274H128.455V10.268ZM126.187 14.804H128.889V16.302H126.187V14.804ZM122.435 12.326H123.905V13.474C123.905 16.638 122.757 19.662 120.335 20.852L119.243 19.382C121.413 18.36 122.435 15.882 122.435 13.474V12.326ZM122.869 12.326H124.325V13.474C124.325 15.756 125.333 18.15 127.503 19.13L126.425 20.586C123.989 19.438 122.869 16.54 122.869 13.474V12.326ZM119.775 11.528H126.985V13.026H119.775V11.528ZM140.606 10.268H142.482V23.232H140.606V10.268ZM141.992 15.224H144.274V16.75H141.992V15.224ZM137.204 11.612H139.024C139.024 15.504 137.54 18.836 133.228 21.006L132.192 19.592C135.594 17.828 137.204 15.448 137.204 11.934V11.612ZM132.906 11.612H138.156V13.11H132.906V11.612ZM172.316 17.828C172.069 17.828 171.833 17.7907 171.609 17.716C171.385 17.6413 171.117 17.5293 170.804 17.38C170.524 17.254 170.298 17.1607 170.125 17.1C169.957 17.0393 169.785 17.009 169.607 17.009C169.295 17.009 169.01 17.0697 168.753 17.191C168.497 17.3123 168.247 17.506 168.004 17.772V16.246C168.21 16.0173 168.443 15.8493 168.704 15.742C168.97 15.63 169.274 15.574 169.614 15.574C169.862 15.574 170.097 15.6113 170.321 15.686C170.545 15.7607 170.814 15.8727 171.126 16.022C171.406 16.148 171.63 16.2413 171.798 16.302C171.971 16.3627 172.146 16.393 172.323 16.393C172.631 16.393 172.914 16.3323 173.17 16.211C173.427 16.085 173.679 15.8913 173.926 15.63V17.149C173.726 17.3777 173.492 17.548 173.226 17.66C172.965 17.772 172.662 17.828 172.316 17.828ZM197.433 17.324H199.309V19.998H197.433V17.324ZM197.419 12.704H198.903V12.998C198.903 15.168 197.741 17.058 195.277 17.716L194.437 16.288C196.509 15.742 197.419 14.384 197.419 12.998V12.704ZM197.811 12.704H199.309V12.998C199.309 14.328 200.247 15.644 202.305 16.176L201.479 17.604C199.015 16.974 197.811 15.112 197.811 12.998V12.704ZM194.829 11.808H201.927V13.278H194.829V11.808ZM197.433 10.394H199.309V12.452H197.433V10.394ZM203.075 10.268H204.937V23.274H203.075V10.268ZM194.395 20.866L194.171 19.354C196.439 19.354 199.631 19.326 202.361 18.92L202.501 20.278C199.687 20.824 196.635 20.852 194.395 20.866ZM208.198 11.374H216.416V12.872H208.198V11.374ZM207.008 20.18H218.726V21.692H207.008V20.18ZM211.152 15.728H213.014V20.922H211.152V15.728ZM215.744 11.374H217.606V12.62C217.606 14.244 217.606 16.064 217.088 18.836L215.226 18.626C215.744 16.05 215.744 14.174 215.744 12.62V11.374ZM228.161 10.268H230.037V23.232H228.161V10.268ZM229.547 15.224H231.829V16.75H229.547V15.224ZM224.759 11.612H226.579C226.579 15.504 225.095 18.836 220.783 21.006L219.747 19.592C223.149 17.828 224.759 15.448 224.759 11.934V11.612ZM220.461 11.612H225.711V13.11H220.461V11.612Z" fill="#A2A2A2"/>
</svg>
